<svg width="150" height="28" viewBox="0 0 150 28" fill="none" xmlns="http://www.w3.org/2000/svg">
<path d="M0 27V3.60005H13.32C18.144 3.60005 21.708 6.40805 21.708 10.908C21.708 14.184 19.8 16.632 16.92 17.676V17.892L22.644 25.668V27H15.912L10.296 18.9H6.12V27H0ZM13.32 9.28805H6.12V13.212H13.32C14.688 13.212 15.588 12.492 15.588 11.232C15.588 10.008 14.688 9.28805 13.32 9.28805Z" fill="#E3E3E3"/>
<path d="M39.0541 20.232H45.3901V21.384C44.2741 24.804 40.4941 27.432 35.5981 27.432C29.8741 27.432 25.6621 23.76 25.6621 18C25.6621 12.24 29.8741 8.56805 35.5981 8.56805C40.9981 8.56805 44.8861 11.808 45.3901 16.56V18.792H31.8181C32.1061 20.772 33.5461 21.96 35.5981 21.96C37.0741 21.96 38.3701 21.42 39.0541 20.232ZM35.5981 13.608C34.0141 13.608 32.7901 14.328 32.1781 15.588H39.0181C38.4061 14.328 37.2901 13.608 35.5981 13.608Z" fill="#E3E3E3"/>
<path d="M54.0259 27L47.5819 10.152V9.00005H53.8459L57.5539 19.476H57.9139L61.8739 9.00005H67.7059V10.152L60.8659 27H54.0259Z" fill="#E3E3E3"/>
<path d="M70.8607 27V9.00005H76.9087V27H70.8607ZM70.7887 4.03205C70.7887 2.16005 72.0127 0.972046 73.8847 0.972046C75.7567 0.972046 76.9447 2.16005 76.9447 4.03205C76.9447 5.94005 75.7567 7.09205 73.8847 7.09205C72.0127 7.09205 70.7887 5.94005 70.7887 4.03205Z" fill="#E3E3E3"/>
<path d="M86.5103 27L80.0663 10.152V9.00005H86.3303L90.0383 19.476H90.3982L94.3583 9.00005H100.19V10.152L93.3503 27H86.5103Z" fill="#E3E3E3"/>
<path d="M115.765 20.232H122.101V21.384C120.985 24.804 117.205 27.432 112.309 27.432C106.585 27.432 102.373 23.76 102.373 18C102.373 12.24 106.585 8.56805 112.309 8.56805C117.709 8.56805 121.597 11.808 122.101 16.56V18.792H108.529C108.817 20.772 110.257 21.96 112.309 21.96C113.785 21.96 115.081 21.42 115.765 20.232ZM112.309 13.608C110.725 13.608 109.501 14.328 108.889 15.588H115.729C115.117 14.328 114.001 13.608 112.309 13.608Z" fill="#E3E3E3"/>
<path d="M126.633 27V3.60005H139.953C144.777 3.60005 148.341 6.40805 148.341 10.908C148.341 14.184 146.433 16.632 143.553 17.676V17.892L149.277 25.668V27H142.545L136.929 18.9H132.753V27H126.633ZM139.953 9.28805H132.753V13.212H139.953C141.321 13.212 142.221 12.492 142.221 11.232C142.221 10.008 141.321 9.28805 139.953 9.28805Z" fill="#E3E3E3"/>
</svg>
