<svg width="24" height="28" viewBox="0 0 24 28" fill="none" xmlns="http://www.w3.org/2000/svg">
<path d="M19.575 26.42C18.105 27.845 16.5 27.62 14.955 26.945C13.32 26.255 11.82 26.225 10.095 26.945C7.935 27.875 6.795 27.605 5.505 26.42C-1.815 18.875 -0.734998 7.385 7.575 6.965C9.6 7.07 11.01 8.075 12.195 8.165C13.965 7.805 15.66 6.77 17.55 6.905C19.815 7.085 21.525 7.985 22.65 9.605C17.97 12.41 19.08 18.575 23.37 20.3C22.515 22.55 21.405 24.785 19.56 26.435L19.575 26.42ZM12.045 6.875C11.82 3.53 14.535 0.77 17.655 0.5C18.09 4.37 14.145 7.25 12.045 6.875Z" fill="black"/>
</svg>
