<svg width="31" height="36" viewBox="0 0 31 36" fill="none" xmlns="http://www.w3.org/2000/svg">
<path d="M8 14.5C8 14.0858 8.39175 13.75 8.875 13.75H21.125C21.6082 13.75 22 14.0858 22 14.5C22 14.9142 21.6082 15.25 21.125 15.25H8.875C8.39175 15.25 8 14.9142 8 14.5Z" fill="#313237"/>
<path d="M8 18C8 17.5858 8.39175 17.25 8.875 17.25H21.125C21.6082 17.25 22 17.5858 22 18C22 18.4142 21.6082 18.75 21.125 18.75H8.875C8.39175 18.75 8 18.4142 8 18Z" fill="#313237"/>
<path d="M8.875 20.75C8.39175 20.75 8 21.0858 8 21.5C8 21.9142 8.39175 22.25 8.875 22.25H21.125C21.6082 22.25 22 21.9142 22 21.5C22 21.0858 21.6082 20.75 21.125 20.75H8.875Z" fill="#313237"/>
</svg>
