<svg width="36" height="36" viewBox="0 0 36 36" fill="none" xmlns="http://www.w3.org/2000/svg">
<g clip-path="url(#clip0_253_30)">
<path d="M13.4508 3.98667C10.4533 5.02652 7.86834 7.00018 6.07548 9.61777C4.28262 12.2353 3.37642 15.3589 3.48998 18.5296C3.60353 21.7002 4.73086 24.7509 6.70639 27.2335C8.68191 29.7162 11.4015 31.4999 14.4657 32.3226C16.9499 32.9636 19.5526 32.9918 22.05 32.4046C24.3125 31.8964 26.4042 30.8094 28.1203 29.2499C29.9065 27.5773 31.2029 25.4495 31.8703 23.0953C32.5958 20.5351 32.7249 17.8428 32.2477 15.2249H18.2977V21.0117H26.3766C26.2151 21.9346 25.8691 22.8155 25.3593 23.6016C24.8495 24.3877 24.1863 25.0628 23.4094 25.5867C22.4229 26.2392 21.3108 26.6783 20.1446 26.8757C18.9749 27.0932 17.7752 27.0932 16.6055 26.8757C15.42 26.6306 14.2985 26.1413 13.3125 25.439C11.7285 24.3177 10.5391 22.7248 9.9141 20.8874C9.2785 19.0157 9.2785 16.9865 9.9141 15.1148C10.359 13.8028 11.0945 12.6082 12.0657 11.6203C13.177 10.4689 14.5841 9.64588 16.1324 9.24153C17.6808 8.83719 19.3106 8.86713 20.843 9.32807C22.0401 9.69555 23.1348 10.3376 24.0399 11.2031C24.9508 10.2968 25.8602 9.38823 26.768 8.47729C27.2368 7.98745 27.7477 7.52104 28.2094 7.01948C26.8279 5.73388 25.2063 4.73352 23.4375 4.07573C20.2165 2.90618 16.6922 2.87475 13.4508 3.98667Z" fill="white"/>
<path d="M13.4509 3.98683C16.692 2.87415 20.2163 2.90476 23.4376 4.07355C25.2067 4.73581 26.8276 5.74098 28.2071 7.03136C27.7384 7.53292 27.2438 8.00167 26.7657 8.48917C25.8563 9.39699 24.9478 10.3017 24.0399 11.2032C23.1349 10.3378 22.0402 9.69572 20.8431 9.32824C19.3111 8.86568 17.6814 8.83401 16.1326 9.2367C14.5839 9.63939 13.176 10.4609 12.0634 11.6111C11.0922 12.599 10.3567 13.7936 9.91182 15.1056L5.05322 11.3439C6.7923 7.89518 9.80342 5.2572 13.4509 3.98683Z" fill="#E33629"/>
<path d="M3.76401 15.0703C4.02515 13.7761 4.4587 12.5227 5.05307 11.3438L9.91166 15.1148C9.27607 16.9866 9.27607 19.0158 9.91166 20.8875C8.29291 22.1375 6.67338 23.3938 5.05307 24.6563C3.56514 21.6945 3.11135 18.3199 3.76401 15.0703Z" fill="#F8BD00"/>
<path d="M18.2977 15.2227H32.2477C32.7249 17.8405 32.5958 20.5328 31.8703 23.093C31.2029 25.4472 29.9065 27.575 28.1203 29.2477C26.5524 28.0242 24.9774 26.8102 23.4094 25.5867C24.1868 25.0624 24.8503 24.3865 25.3601 23.5995C25.87 22.8126 26.2157 21.9308 26.3766 21.007H18.2977C18.2953 19.0805 18.2977 17.1516 18.2977 15.2227Z" fill="#587DBD"/>
<path d="M5.05078 24.6562C6.67109 23.4062 8.29062 22.15 9.90937 20.8875C10.5356 22.7254 11.7267 24.3185 13.3125 25.439C14.3016 26.1381 15.4255 26.6234 16.6125 26.864C17.7822 27.0815 18.9819 27.0815 20.1516 26.864C21.3178 26.6666 22.4299 26.2275 23.4164 25.575C24.9844 26.7984 26.5594 28.0125 28.1273 29.2359C26.4115 30.7962 24.3197 31.884 22.057 32.3929C19.5596 32.98 16.9569 32.9519 14.4727 32.3109C12.5079 31.7863 10.6727 30.8615 9.08203 29.5945C7.39842 28.2578 6.02333 26.5733 5.05078 24.6562Z" fill="#319F43"/>
</g>
<defs>
<clipPath id="clip0_253_30">
<rect width="30" height="30" fill="white" transform="translate(3 3)"/>
</clipPath>
</defs>
</svg>
