<svg width="150" height="27" viewBox="0 0 150 27" fill="none" xmlns="http://www.w3.org/2000/svg">
<path d="M0.0844727 26.028V2.628H13.429C18.2618 2.628 21.8324 5.436 21.8324 9.936C21.8324 13.212 19.9209 15.66 17.0356 16.704V16.92L22.7701 24.696V26.028H16.0257L10.3994 17.928H6.21572V26.028H0.0844727ZM13.429 8.316H6.21572V12.24H13.429C14.7995 12.24 15.7011 11.52 15.7011 10.26C15.7011 9.036 14.7995 8.316 13.429 8.316Z" fill="black"/>
<path d="M39.2104 19.26H45.558V20.412C44.4399 23.832 40.653 26.46 35.748 26.46C30.0135 26.46 25.7937 22.788 25.7937 17.028C25.7937 11.268 30.0135 7.596 35.748 7.596C41.1579 7.596 45.0531 10.836 45.558 15.588V17.82H31.9611C32.2496 19.8 33.6922 20.988 35.748 20.988C37.2267 20.988 38.5251 20.448 39.2104 19.26ZM35.748 12.636C34.1611 12.636 32.9348 13.356 32.3217 14.616H39.1743C38.5612 13.356 37.4431 12.636 35.748 12.636Z" fill="black"/>
<path d="M54.2097 26.028L47.7538 9.18V8.028H54.0293L57.7441 18.504H58.1048L62.0721 8.028H67.9148V9.18L61.0622 26.028H54.2097Z" fill="black"/>
<path d="M71.0754 26.028V8.028H77.1345V26.028H71.0754ZM71.0033 3.06C71.0033 1.188 72.2295 0 74.1049 0C75.9804 0 77.1706 1.188 77.1706 3.06C77.1706 4.968 75.9804 6.12 74.1049 6.12C72.2295 6.12 71.0033 4.968 71.0033 3.06Z" fill="black"/>
<path d="M86.7538 26.028L80.2979 9.18V8.028H86.5734L90.2882 18.504H90.6489L94.6162 8.028H100.459V9.18L93.6063 26.028H86.7538Z" fill="black"/>
<path d="M116.062 19.26H122.41V20.412C121.292 23.832 117.505 26.46 112.6 26.46C106.865 26.46 102.646 22.788 102.646 17.028C102.646 11.268 106.865 7.596 112.6 7.596C118.01 7.596 121.905 10.836 122.41 15.588V17.82H108.813C109.102 19.8 110.544 20.988 112.6 20.988C114.079 20.988 115.377 20.448 116.062 19.26ZM112.6 12.636C111.013 12.636 109.787 13.356 109.174 14.616H116.026C115.413 13.356 114.295 12.636 112.6 12.636Z" fill="black"/>
<path d="M126.95 26.028V2.628H140.295C145.127 2.628 148.698 5.436 148.698 9.936C148.698 13.212 146.786 15.66 143.901 16.704V16.92L149.636 24.696V26.028H142.891L137.265 17.928H133.081V26.028H126.95ZM140.295 8.316H133.081V12.24H140.295C141.665 12.24 142.567 11.52 142.567 10.26C142.567 9.036 141.665 8.316 140.295 8.316Z" fill="black"/>
</svg>
