<svg width="16" height="16" viewBox="0 0 16 16" fill="none" xmlns="http://www.w3.org/2000/svg">
<path d="M7.5 0C8.1875 0 8.85156 0.0885417 9.49219 0.265625C10.1328 0.442708 10.7292 0.695312 11.2812 1.02344C11.8333 1.35156 12.3385 1.74219 12.7969 2.19531C13.2552 2.64844 13.6458 3.15365 13.9688 3.71094C14.2917 4.26823 14.5443 4.86719 14.7266 5.50781C14.9089 6.14844 15 6.8125 15 7.5C15 8.1875 14.9115 8.85156 14.7344 9.49219C14.5573 10.1328 14.3047 10.7292 13.9766 11.2812C13.6484 11.8333 13.2578 12.3385 12.8047 12.7969C12.3516 13.2552 11.8464 13.6458 11.2891 13.9688C10.7318 14.2917 10.1328 14.5443 9.49219 14.7266C8.85156 14.9089 8.1875 15 7.5 15C6.8125 15 6.14844 14.9115 5.50781 14.7344C4.86719 14.5573 4.27083 14.3047 3.71875 13.9766C3.16667 13.6484 2.66146 13.2578 2.20312 12.8047C1.74479 12.3516 1.35417 11.8464 1.03125 11.2891C0.708333 10.7318 0.455729 10.1354 0.273438 9.5C0.0911458 8.86458 0 8.19792 0 7.5C0 6.8125 0.0885417 6.14844 0.265625 5.50781C0.442708 4.86719 0.695312 4.27083 1.02344 3.71875C1.35156 3.16667 1.74219 2.66146 2.19531 2.20312C2.64844 1.74479 3.15365 1.35417 3.71094 1.03125C4.26823 0.708333 4.86458 0.455729 5.5 0.273438C6.13542 0.0911458 6.80208 0 7.5 0ZM8 11H7V12H8V11ZM8.0625 9.67969C8.0625 9.48698 8.08073 9.30469 8.11719 9.13281C8.15365 8.96094 8.2474 8.79948 8.39844 8.64844C8.60156 8.44531 8.80208 8.2526 9 8.07031C9.19792 7.88802 9.375 7.69271 9.53125 7.48438C9.6875 7.27604 9.8151 7.05469 9.91406 6.82031C10.013 6.58594 10.0625 6.3125 10.0625 6C10.0625 5.64583 9.99479 5.3151 9.85938 5.00781C9.72396 4.70052 9.54167 4.42969 9.3125 4.19531C9.08333 3.96094 8.8125 3.77604 8.5 3.64062C8.1875 3.50521 7.85417 3.4375 7.5 3.4375C7.14583 3.4375 6.8151 3.50521 6.50781 3.64062C6.20052 3.77604 5.92969 3.95833 5.69531 4.1875C5.46094 4.41667 5.27604 4.6875 5.14062 5C5.00521 5.3125 4.9375 5.64583 4.9375 6H6.0625C6.0625 5.80208 6.09896 5.61719 6.17188 5.44531C6.24479 5.27344 6.34896 5.11979 6.48438 4.98438C6.61979 4.84896 6.77083 4.7474 6.9375 4.67969C7.10417 4.61198 7.29167 4.57292 7.5 4.5625C7.69792 4.5625 7.88281 4.59896 8.05469 4.67188C8.22656 4.74479 8.38021 4.84896 8.51562 4.98438C8.65104 5.11979 8.7526 5.27083 8.82031 5.4375C8.88802 5.60417 8.92708 5.79167 8.9375 6C8.9375 6.21354 8.88802 6.40365 8.78906 6.57031C8.6901 6.73698 8.56771 6.89583 8.42188 7.04688C8.27604 7.19792 8.11458 7.35417 7.9375 7.51562C7.76042 7.67708 7.60156 7.84896 7.46094 8.03125C7.32031 8.21354 7.19531 8.42448 7.08594 8.66406C6.97656 8.90365 6.92708 9.18229 6.9375 9.5V10H8.0625V9.67969Z" fill="#FFCD29"/>
</svg>
