<svg width="46" height="25" viewBox="0 0 46 25" fill="none" xmlns="http://www.w3.org/2000/svg">
<path d="M0 23.9V0.5H13.32C18.144 0.5 21.708 3.308 21.708 7.808C21.708 11.084 19.8 13.532 16.92 14.576V14.792L22.644 22.568V23.9H15.912L10.296 15.8H6.12V23.9H0ZM13.32 6.188H6.12V10.112H13.32C14.688 10.112 15.588 9.392 15.588 8.132C15.588 6.908 14.688 6.188 13.32 6.188Z" fill="black"/>
<path d="M39.0541 17.132H45.3901V18.284C44.2741 21.704 40.4941 24.332 35.5981 24.332C29.8741 24.332 25.6621 20.66 25.6621 14.9C25.6621 9.14 29.8741 5.468 35.5981 5.468C40.9981 5.468 44.8861 8.708 45.3901 13.46V15.692H31.8181C32.1061 17.672 33.5461 18.86 35.5981 18.86C37.0741 18.86 38.3701 18.32 39.0541 17.132ZM35.5981 10.508C34.0141 10.508 32.7901 11.228 32.1781 12.488H39.0181C38.4061 11.228 37.2901 10.508 35.5981 10.508Z" fill="black"/>
</svg>
