<svg width="16" height="16" viewBox="0 0 16 16" fill="none" xmlns="http://www.w3.org/2000/svg">
<g clip-path="url(#clip0_1702_37)">
<path d="M8 0C5.87875 0 3.8425 0.843375 2.34375 2.34313C0.843465 3.84348 0.000429311 5.87823 0 8C0 10.1209 0.84375 12.1571 2.34375 13.6569C3.8425 15.1566 5.87875 16 8 16C10.1212 16 12.1575 15.1566 13.6562 13.6569C15.1562 12.1571 16 10.1209 16 8C16 5.87913 15.1562 3.84288 13.6562 2.34313C12.1575 0.843375 10.1212 0 8 0Z" fill="url(#paint0_linear_1702_37)"/>
<path d="M3.62155 7.91553C5.95405 6.89953 7.50905 6.22969 8.28655 5.90603C10.5091 4.9819 10.9703 4.8214 11.2716 4.81597C11.3378 4.8149 11.4853 4.83128 11.5816 4.90909C11.6616 4.97472 11.6841 5.06347 11.6953 5.12578C11.7053 5.18803 11.7191 5.3299 11.7078 5.44065C11.5878 6.70565 11.0666 9.7754 10.8016 11.1923C10.6903 11.7918 10.4691 11.9928 10.2553 12.0124C9.7903 12.0552 9.4378 11.7054 8.9878 11.4105C8.28405 10.9489 7.88655 10.6617 7.2028 10.2113C6.4128 9.69078 6.9253 9.40465 7.3753 8.93715C7.4928 8.81478 9.5403 6.9529 9.57905 6.78403C9.58405 6.7629 9.58905 6.68415 9.54155 6.64265C9.4953 6.60103 9.42655 6.61528 9.37655 6.62653C9.3053 6.64253 8.18155 7.38603 6.00155 8.8569C5.6828 9.07615 5.39405 9.18303 5.13405 9.1774C4.84905 9.17128 4.29905 9.0159 3.8903 8.88315C3.3903 8.72028 2.99155 8.63415 3.02655 8.35753C3.04405 8.21353 3.2428 8.06615 3.62155 7.91553Z" fill="white"/>
</g>
<defs>
<linearGradient id="paint0_linear_1702_37" x1="800" y1="0" x2="800" y2="1600" gradientUnits="userSpaceOnUse">
<stop stop-color="#2AABEE"/>
<stop offset="1" stop-color="#229ED9"/>
</linearGradient>
<clipPath id="clip0_1702_37">
<rect width="16" height="16" fill="white"/>
</clipPath>
</defs>
</svg>
